# xmcd CD database file
#
# Track frame offsets:
#	150
#	13037
#	31510
#	60930
#	75205
#	98122
#	119285
#	140440
#	158555
#	177435
#	195332
#
# Disc length: 2951 seconds
#
# Revision: 0
# Processed by: cddbd v1.5.1PL0 Copyright (c) Steve Scherf et al.
# Submitted via: CDex 1.51
#
DISCID=720b850b
DTITLE=Tommy Bankhead - Message To St. Louis
DYEAR=2000
DGENRE=Blues
TTITLE0=How Long
TTITLE1=Going To Chicago
TTITLE2=Tell Me Baby
TTITLE3=It Ain't Right
TTITLE4=Alcohol Ain't Nothin'
TTITLE5=Who Said It
TTITLE6=The Bright Lights
TTITLE7=Message To St. Louis
TTITLE8=Gamblin' Man
TTITLE9=Old Maid
TTITLE10=Goin' Back
EXTD=YEAR: 2000
EXTT0=
EXTT1=
EXTT2=
EXTT3=
EXTT4=
EXTT5=
EXTT6=
EXTT7=
EXTT8=
EXTT9=
EXTT10=
PLAYORDER=
